<?xml version="1.0" encoding="UTF-8" standalone="no"?>
<!-- Created with Inkscape (http://www.inkscape.org/) -->

<svg
   width="80mm"
   height="80mm"
   viewBox="0 0 80 80"
   version="1.1"
   id="svg1"
   xml:space="preserve"
   inkscape:version="1.4 (86a8ad7, 2024-10-11)"
   sodipodi:docname="lorem.svg"
   xmlns:inkscape="http://www.inkscape.org/namespaces/inkscape"
   xmlns:sodipodi="http://sodipodi.sourceforge.net/DTD/sodipodi-0.dtd"
   xmlns="http://www.w3.org/2000/svg"
   xmlns:svg="http://www.w3.org/2000/svg"><sodipodi:namedview
     id="namedview1"
     pagecolor="#ffffff"
     bordercolor="#000000"
     borderopacity="0.25"
     inkscape:showpageshadow="2"
     inkscape:pageopacity="0.0"
     inkscape:pagecheckerboard="0"
     inkscape:deskcolor="#d1d1d1"
     inkscape:document-units="mm"
     inkscape:zoom="0.070893632"
     inkscape:cx="768.75734"
     inkscape:cy="-641.80658"
     inkscape:window-width="1920"
     inkscape:window-height="1009"
     inkscape:window-x="-8"
     inkscape:window-y="-8"
     inkscape:window-maximized="1"
     inkscape:current-layer="layer1" /><defs
     id="defs1" /><g
     inkscape:label="Layer 1"
     inkscape:groupmode="layer"
     id="layer1"
     transform="translate(-34.962826,-80)"><path
       id="path4"
       style="fill:none;fill-rule:evenodd;stroke:#000000;stroke-width:2.84779;stroke-linecap:round;stroke-linejoin:miter;stroke-dasharray:none"
       inkscape:transform-center-x="-10.299594"
       inkscape:transform-center-y="-10.354283"
       d="m 81.95895,149.52233 -11.10785,-7.94793 -18.91304,13.02461 8.600402,-26.12957 -20.518401,-11.52401 22.465005,-4.54806 11.891038,-25.698374 7.377824,23.828354 28.106212,1.60852 -15.493447,12.42825"
       sodipodi:nodetypes="cccccccccc" /><g
       id="g3"
       transform="matrix(1.0232194,0.30552774,-0.30552774,1.0232194,-49.587051,-68.751056)"
       style="stroke-width:3;stroke-dasharray:none"><path
         id="path2"
         style="fill:#000000;fill-rule:evenodd;stroke:#000000;stroke-width:2.1;stroke-linejoin:round;stroke-dasharray:none"
         d="m 172.36736,100.71243 v 49.29105 l 4.57509,10.93008 4.57474,-10.93008 v -49.29105 c 0,-3.528448 -1.9685,-3.98563 -4.57487,-3.985613 -2.60637,1.7e-5 -4.57496,0.457312 -4.57496,3.985613 z"
         sodipodi:nodetypes="scccscs" /><path
         style="fill:#ff0000;fill-rule:evenodd;stroke:none;stroke-width:2.1;stroke-linecap:round;stroke-linejoin:round;stroke-dasharray:none"
         d="m 92.897239,90.535403 8.514911,2.30913 1.29889,-4.803814 c 0,0 -2.927648,-2.886412 -3.21629,-2.886412 -0.288641,0 -4.247147,-0.329876 -4.247147,-0.329876 z"
         id="path5"
         inkscape:label="rubber"
         transform="rotate(-16.625338,178.09747,-175.46202)"
         sodipodi:nodetypes="cccscc" /><path
         style="fill:#ffd42a;fill-rule:evenodd;stroke:none;stroke-width:2.1;stroke-linecap:round;stroke-linejoin:round;stroke-dasharray:none"
         d="m 176.78681,160.20093 4.6432,-10.1298 -0.12452,-44.70359 -8.95651,-0.72019 0.57503,45.49302 z"
         id="path6"
         sodipodi:nodetypes="cccccc" /></g></g></svg>
